# xmcd
#
# Track frame offsets:
#	150
#	94036
#	122851
#	186720
#	243395
#	271607
#	286822
#
# Disc length: 4367 seconds
#
# Revision: 1
# Processed by: cddbd v1.5.2PL0 Copyright (c) Steve Scherf et al.
# Submitted via: audiograbber 1.83.01
#
DISCID=61110d07
DTITLE=Grateful Dead - 72-09-10 Hollywood Palladium, Hollywood CA
DYEAR=1900
DGENRE=
TTITLE0=Playing In The Band
TTITLE1=Casey Jones
TTITLE2=He's Gone
TTITLE3=Truckin'
TTITLE4=Ramble On Rose
TTITLE5=BIODTL
TTITLE6=Black Peter
EXTD=
EXTT0=
EXTT1=
EXTT2=
EXTT3=
EXTT4=
EXTT5=
EXTT6=
PLAYORDER=
